PathFileType	4	(X/Y/Z)	E:/Microgravity/Neeraj_13_07_24_t02 _without_weight_pp.trc													
DataRate	CameraRate	NumFrames	NumMarkers	Units	OrigDataRate	OrigDataStartFrame	OrigNumFrames									
120	120	36	5	m	120	6176	7058									
Frame#	Time	RHAND			r_radius_styloid			RWRB			r_humerus_epicondyle			r_acromion		
		X1	Y1	Z1	X2	Y2	Z2	X3	Y3	Z3	X4	Y4	Z4	X5	Y5	Z5
																
6176	51.458	0.10953	-0.6314	0.28621	0.08225	-0.52994	0.32469	0.02521	-0.56797	0.24995	0.00873	-0.30185	0.28113	-0.00683	0.07796	0.19122
6177	51.467	0.10953	-0.63143	0.28622	0.08226	-0.52996	0.32469	0.02524	-0.56802	0.24994	0.00877	-0.30186	0.28113	-0.00679	0.07795	0.19122
6178	51.475	0.10953	-0.63146	0.28623	0.08227	-0.52998	0.3247	0.02528	-0.56806	0.24994	0.00881	-0.30188	0.28112	-0.00674	0.07794	0.19122
6179	51.483	0.10954	-0.63149	0.28623	0.08229	-0.53001	0.32469	0.0253	-0.5681	0.24993	0.00886	-0.3019	0.28112	-0.00669	0.07793	0.19122
6180	51.492	0.10955	-0.63152	0.28622	0.08231	-0.53004	0.32469	0.02533	-0.56814	0.24993	0.00891	-0.30191	0.28112	-0.00665	0.07792	0.19121
6181	51.5	0.10956	-0.63155	0.28622	0.08232	-0.53007	0.32468	0.02535	-0.56817	0.24992	0.00896	-0.30193	0.28111	-0.0066	0.0779	0.19121
6182	51.508	0.10956	-0.63158	0.28621	0.08234	-0.5301	0.32467	0.02537	-0.5682	0.24991	0.00901	-0.30195	0.2811	-0.00656	0.07787	0.1912
6183	51.517	0.10956	-0.63162	0.2862	0.08236	-0.53014	0.32466	0.02538	-0.56823	0.24989	0.00906	-0.30197	0.28109	-0.00651	0.07786	0.1912
6184	51.525	0.10955	-0.63166	0.28619	0.08237	-0.53017	0.32464	0.02539	-0.56825	0.24987	0.00912	-0.30198	0.28108	-0.00646	0.07785	0.1912
6185	51.533	0.10953	-0.6317	0.28618	0.08238	-0.5302	0.32463	0.02539	-0.56828	0.24986	0.00917	-0.302	0.28107	-0.0064	0.07784	0.19121
6186	51.542	0.10952	-0.63175	0.28616	0.08239	-0.53024	0.32461	0.0254	-0.56831	0.24984	0.00923	-0.30202	0.28105	-0.00634	0.07783	0.19121
6187	51.55	0.1095	-0.63179	0.28614	0.08239	-0.53027	0.32459	0.02541	-0.56833	0.24981	0.00928	-0.30204	0.28103	-0.00629	0.07783	0.19121
6188	51.558	0.10948	-0.63183	0.28613	0.0824	-0.53031	0.32457	0.02541	-0.56836	0.24979	0.00933	-0.30206	0.28101	-0.00624	0.07781	0.19121
6189	51.567	0.10946	-0.63187	0.28611	0.0824	-0.53035	0.32455	0.02541	-0.56839	0.24977	0.00938	-0.30208	0.28098	-0.00619	0.0778	0.19121
6190	51.575	0.10944	-0.6319	0.28609	0.0824	-0.53038	0.32453	0.02541	-0.56841	0.24974	0.00942	-0.3021	0.28096	-0.00613	0.07779	0.19121
6191	51.583	0.10942	-0.63194	0.28607	0.0824	-0.53041	0.3245	0.02541	-0.56844	0.24972	0.00946	-0.30212	0.28093	-0.00608	0.07777	0.1912
6192	51.592	0.10939	-0.63197	0.28604	0.08239	-0.53045	0.32447	0.02541	-0.56846	0.24969	0.00949	-0.30214	0.28091	-0.00603	0.07775	0.1912
6193	51.6	0.10937	-0.63201	0.286	0.08239	-0.53048	0.32444	0.02541	-0.56848	0.24967	0.00953	-0.30215	0.28088	-0.00598	0.07773	0.19119
6194	51.608	0.10935	-0.63204	0.28596	0.08239	-0.53052	0.3244	0.0254	-0.5685	0.24964	0.00956	-0.30217	0.28085	-0.00594	0.07772	0.19118
6195	51.617	0.10932	-0.63208	0.28592	0.08238	-0.53055	0.32436	0.02539	-0.56852	0.24961	0.00959	-0.30219	0.28083	-0.00589	0.07771	0.19117
6196	51.625	0.1093	-0.63211	0.28587	0.08238	-0.53058	0.32432	0.02537	-0.56853	0.24958	0.00962	-0.3022	0.2808	-0.00584	0.07771	0.19117
6197	51.633	0.10927	-0.63215	0.28582	0.08237	-0.53061	0.32428	0.02534	-0.56853	0.24954	0.00964	-0.30222	0.28077	-0.0058	0.0777	0.19116
6198	51.642	0.10925	-0.63218	0.28577	0.08236	-0.53064	0.32423	0.02531	-0.56853	0.24949	0.00966	-0.30224	0.28074	-0.00576	0.07769	0.19116
6199	51.65	0.10922	-0.63222	0.28573	0.08235	-0.53067	0.32419	0.02529	-0.56853	0.24945	0.00967	-0.30225	0.28071	-0.00571	0.07768	0.19115
6200	51.658	0.1092	-0.63224	0.28569	0.08234	-0.53069	0.32415	0.02526	-0.56853	0.2494	0.00968	-0.30227	0.28068	-0.00567	0.07768	0.19115
6201	51.667	0.10918	-0.63227	0.28565	0.08232	-0.53072	0.32411	0.02524	-0.56853	0.24935	0.00969	-0.30229	0.28065	-0.00563	0.07767	0.19114
6202	51.675	0.10917	-0.63228	0.28561	0.08231	-0.53074	0.32408	0.02521	-0.56854	0.24931	0.0097	-0.30231	0.28062	-0.00559	0.07766	0.19114
6203	51.683	0.10914	-0.63231	0.28557	0.08229	-0.53076	0.32404	0.02518	-0.56854	0.24926	0.0097	-0.30232	0.28059	-0.00555	0.07766	0.19114
6204	51.692	0.10912	-0.63233	0.28553	0.08227	-0.53078	0.324	0.02515	-0.56855	0.24922	0.00971	-0.30234	0.28056	-0.00551	0.07766	0.19114
6205	51.7	0.10909	-0.63235	0.2855	0.08225	-0.53081	0.32397	0.02512	-0.56857	0.24918	0.00971	-0.30235	0.28052	-0.00547	0.07765	0.19113
6206	51.708	0.10905	-0.63238	0.28547	0.08222	-0.53083	0.32394	0.02509	-0.56859	0.24914	0.00972	-0.30237	0.28049	-0.00543	0.07766	0.19113
6207	51.717	0.10901	-0.63241	0.28544	0.08219	-0.53086	0.32391	0.02506	-0.56861	0.2491	0.00972	-0.30238	0.28046	-0.00539	0.07766	0.19113
6208	51.725	0.10896	-0.63244	0.28541	0.08216	-0.53089	0.32388	0.02504	-0.56863	0.24907	0.00973	-0.3024	0.28044	-0.00535	0.07767	0.19114
6209	51.733	0.1089	-0.63246	0.28538	0.08212	-0.53091	0.32385	0.025	-0.56865	0.24904	0.00973	-0.30241	0.28041	-0.00531	0.07767	0.19114
6210	51.742	0.10885	-0.63249	0.28536	0.08209	-0.53094	0.32383	0.02497	-0.56867	0.249	0.00973	-0.30242	0.28038	-0.00528	0.07767	0.19113
6211	51.75	0.10879	-0.63252	0.28534	0.08204	-0.53096	0.3238	0.02493	-0.56869	0.24897	0.00972	-0.30243	0.28036	-0.00525	0.07766	0.19113
